<svg enable-background="new 0 0 595.28 841.89" viewBox="0 0 595.28 841.89" xmlns="http://www.w3.org/2000/svg" xmlns:xlink="http://www.w3.org/1999/xlink"><clipPath id="a"><path d="m13.68 55.05h595.28v841.89h-595.28z"/></clipPath><clipPath><path d="m13.68 55.05h595.28v841.89h-595.28z"/></clipPath><clipPath><path d="m13.68 114.52h583.14v782.43h-583.14z"/></clipPath><clipPath id="b"><path d="m13.68 55.05h595.28v841.89h-595.28z"/></clipPath><clipPath id="c"><path d="m13.68 55.05h595.28v841.89h-595.28z"/></clipPath><clipPath id="d"><path d="m196.03 279.86h210.21v244.4h-210.21z"/></clipPath><clipPath id="e"><path d="m310.26 512.54-7.55 7.52s-69.75-67.09-86.14-89.12c-1.86-2.5 0 0-5.05-7.93-21.46-33.71-14.17-78.79 13.39-107.73 29.68-31.16 72.11-32.41 72.11-32.41h9.22s42.43 1.26 72.11 32.41c27.56 28.94 32.55 72.66 13.39 107.73-1.51 2.76-5.56 8.49-7.42 11-12.98 17.43-53.42 57.83-70.72 75.21-2.27 2.28-4.1 4.11-5.37 5.38-1.31 1.3-2.7 2.52-4.17 3.65"/></clipPath><linearGradient id="f" gradientUnits="userSpaceOnUse" x1="199.0279705" x2="403.2394705" y1="401.45896414999" y2="401.45896414999"><stop offset="0" stop-color="#ff487e"/><stop offset=".1472" stop-color="#ff487e"/><stop offset=".8026" stop-color="#ff9c8d"/><stop offset="1" stop-color="#ff9c8d"/></linearGradient><clipPath id="g"><path d="m196.03 279.86h210.21v244.4h-210.21z"/></clipPath><clipPath id="h"><path d="m13.68 55.05h595.28v841.89h-595.28z"/></clipPath><clipPath id="i"><path d="m13.68 55.05h595.28v841.89h-595.28z"/></clipPath><clipPath id="j"><path d="m13.68 55.05h595.28v841.89h-595.28z"/></clipPath><clipPath id="k"><path d="m13.68 55.05h595.28v841.89h-595.28z"/></clipPath><g clip-path="url(#a)"><g clip-path="url(#b)"><g clip-path="url(#c)"><g clip-path="url(#d)"><path clip-path="url(#e)" d="m190.06 282.86h220.83v237.2h-220.83z" fill="url(#f)"/></g><path d="m310.26 512.54-7.55 7.52s-69.75-67.09-86.14-89.13c-1.86-2.5 0 0-5.05-7.93-21.46-33.71-14.17-78.79 13.39-107.73 29.68-31.16 72.11-32.41 72.11-32.41h9.22s42.43 1.26 72.11 32.41c27.56 28.94 32.55 72.66 13.39 107.73-1.51 2.76-5.56 8.49-7.42 10.99-12.98 17.43-53.42 57.83-70.72 75.21-2.27 2.28-4.1 4.11-5.37 5.38-1.31 1.31-2.7 2.52-4.17 3.65" style="fill:none;stroke:#000;stroke-width:6;stroke-linecap:round;stroke-miterlimit:10;clip-path:url(#g)"/></g><path clip-path="url(#h)" d="m301.32 357.6s.36-.53.87-1.48c6.92-12.85 29.07-14.9 38.42-1.42 1.9 2.74 3.21 5.9 3.79 9.63.47 3.01.36 5.26-.59 9.02-5.12 20.31-42.5 44.46-42.5 44.46" fill="#fff"/><path d="m301.32 357.6s.36-.53.87-1.48c6.92-12.85 29.07-14.9 38.42-1.42 1.9 2.74 3.21 5.9 3.79 9.63.47 3.01.36 5.26-.59 9.02-5.12 20.31-42.5 44.46-42.5 44.46" style="fill:none;stroke:#000;stroke-width:4;stroke-linecap:round;stroke-linejoin:round;stroke-miterlimit:10;clip-path:url(#i)"/><path clip-path="url(#j)" d="m302.31 417.74c.26.28-37.87-22.9-43.82-43.93-1.06-3.74-1.1-6.01-.61-9.02.6-3.73 1.95-6.89 3.91-9.63 9.65-13.48 30.64-12.49 39.62 1.42" fill="#fff"/><path d="m302.31 417.74c.26.28-37.87-22.9-43.82-43.93-1.06-3.74-1.1-6.01-.61-9.02.6-3.73 1.95-6.89 3.91-9.63 9.65-13.48 30.64-12.49 39.62 1.42" style="fill:none;stroke:#000;stroke-width:4;stroke-linecap:round;stroke-linejoin:round;stroke-miterlimit:10;clip-path:url(#k)"/></g></g></svg>